# xmcd
#
# Track frame offsets:
#	150
#	11570
#	23243
#	35145
#	51823
#	63726
#	78783
#	91511
#	104608
#	118889
#	133440
#	143802
#	157827
#	173081
#	182601
#
# Disc length: 2624 seconds
#
# Revision: 1
# Processed by: cddbd v1.5.2PL0 Copyright (c) Steve Scherf et al.
# Submitted via: audiograbber 1.83.01
#
DISCID=c70a3e0f
DTITLE=Froggy Mountain Boys - Route 77
DYEAR=2012
DGENRE=Western Swing
TTITLE0=Route 77
TTITLE1=Oozlin Daddy Blues
TTITLE2=Miss Molly
TTITLE3=Lazy Bones
TTITLE4=Prosperity Special
TTITLE5=If I Had You
TTITLE6=Down By The Old Mill Stream
TTITLE7=Riverboat Shuffle
TTITLE8=Delta Bound
TTITLE9=Y A Pas Toujours Quelqu'un
TTITLE10=China Boy
TTITLE11=Corrina Corrina
TTITLE12=One Sided Love Affair
TTITLE13=Place De Brouckere
TTITLE14=Blues In The Bottle
EXTD=
EXTT0=
EXTT1=
EXTT2=
EXTT3=
EXTT4=
EXTT5=
EXTT6=
EXTT7=
EXTT8=
EXTT9=
EXTT10=
EXTT11=
EXTT12=
EXTT13=
EXTT14=
PLAYORDER=
